<svg xmlns="http://www.w3.org/2000/svg" xmlns:xlink="http://www.w3.org/1999/xlink" contentStyleType="text/css" height="980.0291px" preserveAspectRatio="none" style="width:810px;height:980px;background:#FFFFFF;" version="1.1" viewBox="0 0 810 980" width="810.0819px" zoomAndPan="magnify"><title>PGRWL &#8212; Stream Mode (WAL, Basebackup, Retention)</title><defs/><g><text fill="#000000" font-family="sans-serif" font-size="15.8617" font-weight="bold" lengthAdjust="spacing" textLength="427.4598" x="189.2577" y="33.7357">PGRWL &#8212; Stream Mode (WAL, Basebackup, Retention)</text><rect fill="#ADD8E6" height="922.5714" style="stroke:#181818;stroke-width:0.28324540522111685;" width="71.4312" x="0.5665" y="45.1811"/><text fill="#000000" font-family="sans-serif" font-size="7.3644" font-weight="bold" lengthAdjust="spacing" textLength="68.0322" x="2.266" y="53.0537">PostgreSQL Server</text><rect fill="#F0FFF0" height="922.5714" style="stroke:#181818;stroke-width:0.28324540522111685;" width="551.8086" x="98.9578" y="45.1811"/><text fill="#000000" font-family="sans-serif" font-size="7.3644" font-weight="bold" lengthAdjust="spacing" textLength="77.0757" x="336.3242" y="53.0537">PGRWL Stream Mode</text><rect fill="#F0F8FF" height="922.5714" style="stroke:#181818;stroke-width:0.28324540522111685;" width="145.5786" x="651.8993" y="45.1811"/><text fill="#000000" font-family="sans-serif" font-size="7.3644" font-weight="bold" lengthAdjust="spacing" textLength="28.618" x="710.3796" y="53.0537">Storage</text><rect fill="#FFFFE0" height="89.8058" style="stroke:#000000;stroke-width:0.8497362156633506;" width="224.1056" x="7.1237" y="114.7699"/><rect fill="#D8BFD8" height="105.901" style="stroke:#000000;stroke-width:0.8497362156633506;" width="238.7989" x="184.0216" y="212.5066"/><rect fill="#E6E6FA" height="106.4675" style="stroke:#000000;stroke-width:0.8497362156633506;" width="705.318" x="95.5588" y="326.3385"/><rect fill="#F5DEB3" height="161.8839" style="stroke:#000000;stroke-width:0.8497362156633506;" width="793.7531" x="7.1237" y="440.7368"/><rect fill="#FFE4E1" height="225.2312" style="stroke:#000000;stroke-width:0.8497362156633506;" width="340.4983" x="460.3785" y="610.5516"/><rect fill="#90EE90" height="65.0468" style="stroke:#000000;stroke-width:0.8497362156633506;" width="558.6065" x="95.5588" y="843.7137"/><line style="stroke:#181818;stroke-width:0.28324540522111685;stroke-dasharray:5.0,5.0;" x1="36.0148" x2="36.0148" y1="105.1396" y2="918.3908"/><line style="stroke:#181818;stroke-width:0.28324540522111685;stroke-dasharray:5.0,5.0;" x1="130.1148" x2="130.1148" y1="105.1396" y2="918.3908"/><line style="stroke:#181818;stroke-width:0.28324540522111685;stroke-dasharray:5.0,5.0;" x1="228.2078" x2="228.2078" y1="105.1396" y2="918.3908"/><line style="stroke:#181818;stroke-width:0.28324540522111685;stroke-dasharray:5.0,5.0;" x1="329.2727" x2="329.2727" y1="105.1396" y2="918.3908"/><line style="stroke:#181818;stroke-width:0.28324540522111685;stroke-dasharray:5.0,5.0;" x1="412.5523" x2="412.5523" y1="105.1396" y2="918.3908"/><line style="stroke:#181818;stroke-width:0.28324540522111685;stroke-dasharray:5.0,5.0;" x1="505.6978" x2="505.6978" y1="105.1396" y2="918.3908"/><line style="stroke:#181818;stroke-width:0.28324540522111685;stroke-dasharray:5.0,5.0;" x1="627.4191" x2="627.4191" y1="105.1396" y2="918.3908"/><line style="stroke:#181818;stroke-width:0.28324540522111685;stroke-dasharray:5.0,5.0;" x1="724.4102" x2="724.4102" y1="105.1396" y2="918.3908"/><text fill="#000000" font-family="sans-serif" font-size="7.9309" lengthAdjust="spacing" textLength="43.5879" x="12.7886" y="102.8158">PostgreSQL</text><path d="M26.0852,73.9441 C26.0852,68.2792 36.2821,68.2792 36.2821,68.2792 C36.2821,68.2792 46.4789,68.2792 46.4789,73.9441 L46.4789,88.6729 C46.4789,94.3378 36.2821,94.3378 36.2821,94.3378 C36.2821,94.3378 26.0852,94.3378 26.0852,88.6729 L26.0852,73.9441 " fill="#00BFFF" style="stroke:#181818;stroke-width:0.8497362156633506;"/><path d="M26.0852,73.9441 C26.0852,79.609 36.2821,79.609 36.2821,79.609 C36.2821,79.609 46.4789,79.609 46.4789,73.9441 " fill="none" style="stroke:#181818;stroke-width:0.8497362156633506;"/><text fill="#000000" font-family="sans-serif" font-size="7.9309" lengthAdjust="spacing" textLength="43.5879" x="12.7886" y="926.3024">PostgreSQL</text><path d="M26.0852,934.291 C26.0852,928.6261 36.2821,928.6261 36.2821,928.6261 C36.2821,928.6261 46.4789,928.6261 46.4789,934.291 L46.4789,949.0198 C46.4789,954.6847 36.2821,954.6847 36.2821,954.6847 C36.2821,954.6847 26.0852,954.6847 26.0852,949.0198 L26.0852,934.291 " fill="#00BFFF" style="stroke:#181818;stroke-width:0.8497362156633506;"/><path d="M26.0852,934.291 C26.0852,939.956 36.2821,939.956 36.2821,939.956 C36.2821,939.956 46.4789,939.956 46.4789,934.291 " fill="none" style="stroke:#181818;stroke-width:0.8497362156633506;"/><rect fill="#FFFFE0" height="18.7327" rx="1.4162" ry="1.4162" style="stroke:#181818;stroke-width:0.28324540522111685;" width="58.1014" x="101.2237" y="85.8404"/><text fill="#000000" font-family="sans-serif" font-size="7.9309" lengthAdjust="spacing" textLength="50.1705" x="105.1892" y="98.2839">WAL Receiver</text><rect fill="#FFFFE0" height="18.7327" rx="1.4162" ry="1.4162" style="stroke:#181818;stroke-width:0.28324540522111685;" width="58.1014" x="101.2237" y="917.8243"/><text fill="#000000" font-family="sans-serif" font-size="7.9309" lengthAdjust="spacing" textLength="50.1705" x="105.1892" y="930.2678">WAL Receiver</text><rect fill="#D8BFD8" height="18.7327" rx="1.4162" ry="1.4162" style="stroke:#181818;stroke-width:0.28324540522111685;" width="77.4209" x="189.6865" y="85.8404"/><text fill="#000000" font-family="sans-serif" font-size="7.9309" lengthAdjust="spacing" textLength="69.49" x="193.6519" y="98.2839">Archive Supervisor</text><rect fill="#D8BFD8" height="18.7327" rx="1.4162" ry="1.4162" style="stroke:#181818;stroke-width:0.28324540522111685;" width="77.4209" x="189.6865" y="917.8243"/><text fill="#000000" font-family="sans-serif" font-size="7.9309" lengthAdjust="spacing" textLength="69.49" x="193.6519" y="930.2678">Archive Supervisor</text><rect fill="#E6E6FA" height="18.7327" rx="1.4162" ry="1.4162" style="stroke:#181818;stroke-width:0.28324540522111685;" width="61.1865" x="298.6822" y="85.8404"/><text fill="#000000" font-family="sans-serif" font-size="7.9309" lengthAdjust="spacing" textLength="53.2556" x="302.6476" y="98.2839">WAL Uploader</text><rect fill="#E6E6FA" height="18.7327" rx="1.4162" ry="1.4162" style="stroke:#181818;stroke-width:0.28324540522111685;" width="61.1865" x="298.6822" y="917.8243"/><text fill="#000000" font-family="sans-serif" font-size="7.9309" lengthAdjust="spacing" textLength="53.2556" x="302.6476" y="930.2678">WAL Uploader</text><rect fill="#F5DEB3" height="18.7327" rx="1.4162" ry="1.4162" style="stroke:#181818;stroke-width:0.28324540522111685;" width="94.845" x="365.5336" y="85.8404"/><text fill="#000000" font-family="sans-serif" font-size="7.9309" lengthAdjust="spacing" textLength="86.9141" x="369.499" y="98.2839">Basebackup Supervisor</text><rect fill="#F5DEB3" height="18.7327" rx="1.4162" ry="1.4162" style="stroke:#181818;stroke-width:0.28324540522111685;" width="94.845" x="365.5336" y="917.8243"/><text fill="#000000" font-family="sans-serif" font-size="7.9309" lengthAdjust="spacing" textLength="86.9141" x="369.499" y="930.2678">Basebackup Supervisor</text><rect fill="#FFE4E1" height="18.7327" rx="1.4162" ry="1.4162" style="stroke:#181818;stroke-width:0.28324540522111685;" width="79.8636" x="466.0434" y="85.8404"/><text fill="#000000" font-family="sans-serif" font-size="7.9309" lengthAdjust="spacing" textLength="71.9327" x="470.0089" y="98.2839">Retention Manager</text><rect fill="#FFE4E1" height="18.7327" rx="1.4162" ry="1.4162" style="stroke:#181818;stroke-width:0.28324540522111685;" width="79.8636" x="466.0434" y="917.8243"/><text fill="#000000" font-family="sans-serif" font-size="7.9309" lengthAdjust="spacing" textLength="71.9327" x="470.0089" y="930.2678">Retention Manager</text><rect fill="#90EE90" height="18.7327" rx="1.4162" ry="1.4162" style="stroke:#181818;stroke-width:0.28324540522111685;" width="42.0414" x="606.459" y="85.8404"/><text fill="#000000" font-family="sans-serif" font-size="7.9309" lengthAdjust="spacing" textLength="34.1106" x="610.4244" y="98.2839">HTTP API</text><rect fill="#90EE90" height="18.7327" rx="1.4162" ry="1.4162" style="stroke:#181818;stroke-width:0.28324540522111685;" width="42.0414" x="606.459" y="917.8243"/><text fill="#000000" font-family="sans-serif" font-size="7.9309" lengthAdjust="spacing" textLength="34.1106" x="610.4244" y="930.2678">HTTP API</text><text fill="#000000" font-family="sans-serif" font-size="7.9309" lengthAdjust="spacing" textLength="137.6477" x="654.1653" y="92.014">Object Storage / SFTP / Local Storage</text><text fill="#000000" font-family="sans-serif" font-size="7.9309" lengthAdjust="spacing" textLength="107.6056" x="669.1863" y="102.8158">(WAL archive + basebackups)</text><path d="M714.4918,63.1423 C714.4918,57.4774 724.6886,57.4774 724.6886,57.4774 C724.6886,57.4774 734.8854,57.4774 734.8854,63.1423 L734.8854,77.8711 C734.8854,83.536 724.6886,83.536 724.6886,83.536 C724.6886,83.536 714.4918,83.536 714.4918,77.8711 L714.4918,63.1423 " fill="#E0FFFF" style="stroke:#181818;stroke-width:0.8497362156633506;"/><path d="M714.4918,63.1423 C714.4918,68.8072 724.6886,68.8072 724.6886,68.8072 C724.6886,68.8072 734.8854,68.8072 734.8854,63.1423 " fill="none" style="stroke:#181818;stroke-width:0.8497362156633506;"/><text fill="#000000" font-family="sans-serif" font-size="7.9309" lengthAdjust="spacing" textLength="137.6477" x="654.1653" y="926.3024">Object Storage / SFTP / Local Storage</text><text fill="#000000" font-family="sans-serif" font-size="7.9309" lengthAdjust="spacing" textLength="107.6056" x="669.1863" y="937.1042">(WAL archive + basebackups)</text><path d="M714.4918,945.0928 C714.4918,939.4279 724.6886,939.4279 724.6886,939.4279 C724.6886,939.4279 734.8854,939.4279 734.8854,945.0928 L734.8854,959.8216 C734.8854,965.4865 724.6886,965.4865 724.6886,965.4865 C724.6886,965.4865 714.4918,965.4865 714.4918,959.8216 L714.4918,945.0928 " fill="#E0FFFF" style="stroke:#181818;stroke-width:0.8497362156633506;"/><path d="M714.4918,945.0928 C714.4918,950.7578 724.6886,950.7578 724.6886,950.7578 C724.6886,950.7578 734.8854,950.7578 734.8854,945.0928 " fill="none" style="stroke:#181818;stroke-width:0.8497362156633506;"/><path d="M7.1237,114.7699 L87.7456,114.7699 L87.7456,120.2683 L82.0807,125.9332 L7.1237,125.9332 L7.1237,114.7699 " fill="#EEEEEE" style="stroke:#000000;stroke-width:0.8497362156633506;"/><rect fill="none" height="89.8058" style="stroke:#000000;stroke-width:0.8497362156633506;" width="224.1056" x="7.1237" y="114.7699"/><text fill="#000000" font-family="sans-serif" font-size="7.3644" font-weight="bold" lengthAdjust="spacing" textLength="55.1298" x="15.6211" y="123.2089">WAL Reception</text><polygon fill="#181818" points="42.5135,137.0965,36.8486,139.3624,42.5135,141.6284,40.2475,139.3624" style="stroke:#181818;stroke-width:0.5664908104422337;"/><line style="stroke:#181818;stroke-width:0.5664908104422337;" x1="39.1145" x2="129.7079" y1="139.3624" y2="139.3624"/><text fill="#000000" font-family="sans-serif" font-size="7.3644" lengthAdjust="spacing" textLength="70.4404" x="45.9124" y="136.0717">Stream WAL records</text><line style="stroke:#181818;stroke-width:0.5664908104422337;" x1="130.2744" x2="154.067" y1="157.3236" y2="157.3236"/><line style="stroke:#181818;stroke-width:0.5664908104422337;" x1="154.067" x2="154.067" y1="157.3236" y2="164.688"/><line style="stroke:#181818;stroke-width:0.5664908104422337;" x1="130.8409" x2="154.067" y1="164.688" y2="164.688"/><polygon fill="#181818" points="136.5058,162.422,130.8409,164.688,136.5058,166.9539,134.2398,164.688" style="stroke:#181818;stroke-width:0.5664908104422337;"/><text fill="#000000" font-family="sans-serif" font-size="7.3644" lengthAdjust="spacing" textLength="87.5994" x="134.2398" y="154.0328">Write to *.partial WAL file</text><line style="stroke:#181818;stroke-width:0.5664908104422337;" x1="130.2744" x2="154.067" y1="192.6794" y2="192.6794"/><line style="stroke:#181818;stroke-width:0.5664908104422337;" x1="154.067" x2="154.067" y1="192.6794" y2="200.0438"/><line style="stroke:#181818;stroke-width:0.5664908104422337;" x1="130.8409" x2="154.067" y1="200.0438" y2="200.0438"/><polygon fill="#181818" points="136.5058,197.7778,130.8409,200.0438,136.5058,202.3098,134.2398,200.0438" style="stroke:#181818;stroke-width:0.5664908104422337;"/><text fill="#000000" font-family="sans-serif" font-size="7.3644" lengthAdjust="spacing" textLength="90.1917" x="134.2398" y="179.3584">When segment completes</text><text fill="#000000" font-family="sans-serif" font-size="7.3644" lengthAdjust="spacing" textLength="82.6063" x="134.2398" y="189.3887">rename to final WAL file</text><path d="M184.0216,212.5066 L286.5525,212.5066 L286.5525,218.005 L280.8876,223.6699 L184.0216,223.6699 L184.0216,212.5066 " fill="#EEEEEE" style="stroke:#000000;stroke-width:0.8497362156633506;"/><rect fill="none" height="105.901" style="stroke:#000000;stroke-width:0.8497362156633506;" width="238.7989" x="184.0216" y="212.5066"/><text fill="#000000" font-family="sans-serif" font-size="7.3644" font-weight="bold" lengthAdjust="spacing" textLength="77.0388" x="192.5189" y="220.9456">Archive Control Loop</text><line style="stroke:#181818;stroke-width:0.5664908104422337;" x1="228.3969" x2="252.1895" y1="237.0991" y2="237.0991"/><line style="stroke:#181818;stroke-width:0.5664908104422337;" x1="252.1895" x2="252.1895" y1="237.0991" y2="244.4635"/><line style="stroke:#181818;stroke-width:0.5664908104422337;" x1="228.9634" x2="252.1895" y1="244.4635" y2="244.4635"/><polygon fill="#181818" points="234.6283,242.1975,228.9634,244.4635,234.6283,246.7295,232.3624,244.4635" style="stroke:#181818;stroke-width:0.5664908104422337;"/><text fill="#000000" font-family="sans-serif" font-size="7.3644" lengthAdjust="spacing" textLength="28.1909" x="232.3624" y="233.8084">Run(ctx)</text><path d="M231.1283,251.8279 L231.1283,287.5168 L416.9372,287.5168 L416.9372,257.4928 L411.2723,251.8279 L231.1283,251.8279 " fill="#FEFFDD" style="stroke:#181818;stroke-width:0.28324540522111685;"/><path d="M411.2723,251.8279 L411.2723,257.4928 L416.9372,257.4928 L411.2723,251.8279 " fill="#FEFFDD" style="stroke:#181818;stroke-width:0.28324540522111685;"/><text fill="#000000" font-family="sans-serif" font-size="7.3644" lengthAdjust="spacing" textLength="116.0701" x="234.5272" y="262.5329">Periodically triggers upload work.</text><text fill="#000000" font-family="sans-serif" font-size="7.3644" lengthAdjust="spacing" textLength="147.6486" x="234.5272" y="272.5632">Upload errors are logged and retried later.</text><text fill="#000000" font-family="sans-serif" font-size="7.3644" lengthAdjust="spacing" textLength="174.131" x="234.5272" y="282.5935">Upload logic must not interfere with WAL receiver.</text><polygon fill="#181818" points="322.4775,311.6097,328.1424,313.8757,322.4775,316.1416,324.7435,313.8757" style="stroke:#181818;stroke-width:0.5664908104422337;"/><line style="stroke:#181818;stroke-width:0.5664908104422337;stroke-dasharray:2.0,2.0;" x1="228.3969" x2="325.8765" y1="313.8757" y2="313.8757"/><text fill="#000000" font-family="sans-serif" font-size="7.3644" lengthAdjust="spacing" textLength="63.2601" x="232.3624" y="300.5546">Every SyncInterval</text><text fill="#000000" font-family="sans-serif" font-size="7.3644" lengthAdjust="spacing" textLength="87.2827" x="232.3624" y="310.5849">trigger performUploads()</text><path d="M95.5588,326.3385 L165.4729,326.3385 L165.4729,331.8368 L159.808,337.5017 L95.5588,337.5017 L95.5588,326.3385 " fill="#EEEEEE" style="stroke:#000000;stroke-width:0.8497362156633506;"/><rect fill="none" height="106.4675" style="stroke:#000000;stroke-width:0.8497362156633506;" width="705.318" x="95.5588" y="326.3385"/><text fill="#000000" font-family="sans-serif" font-size="7.3644" font-weight="bold" lengthAdjust="spacing" textLength="44.422" x="104.0562" y="334.7775">WAL Upload</text><path d="M331.9636,340.3342 L331.9636,376.0231 L512.6742,376.0231 L512.6742,345.9991 L507.0093,340.3342 L331.9636,340.3342 " fill="#FEFFDD" style="stroke:#181818;stroke-width:0.28324540522111685;"/><path d="M507.0093,340.3342 L507.0093,345.9991 L512.6742,345.9991 L507.0093,340.3342 " fill="#FEFFDD" style="stroke:#181818;stroke-width:0.28324540522111685;"/><text fill="#000000" font-family="sans-serif" font-size="7.3644" lengthAdjust="spacing" textLength="111.5705" x="335.3626" y="351.0392">Scans completed local WAL files.</text><text fill="#000000" font-family="sans-serif" font-size="7.3644" lengthAdjust="spacing" textLength="115.8639" x="335.3626" y="361.0695">Skips incomplete/temporary files.</text><text fill="#000000" font-family="sans-serif" font-size="7.3644" lengthAdjust="spacing" textLength="169.1526" x="335.3626" y="371.0998">Uploads WALs into WAL archive paths in storage.</text><polygon fill="#181818" points="136.5058,390.0857,130.8409,392.3517,136.5058,394.6177,134.2398,392.3517" style="stroke:#181818;stroke-width:0.5664908104422337;"/><line style="stroke:#181818;stroke-width:0.5664908104422337;" x1="133.1069" x2="328.7089" y1="392.3517" y2="392.3517"/><text fill="#000000" font-family="sans-serif" font-size="7.3644" lengthAdjust="spacing" textLength="84.4106" x="139.9047" y="389.0609">Scan local WAL directory</text><polygon fill="#181818" points="717.8907,408.0469,723.5556,410.3129,717.8907,412.5788,720.1567,410.3129" style="stroke:#181818;stroke-width:0.5664908104422337;"/><line style="stroke:#181818;stroke-width:0.5664908104422337;" x1="329.2754" x2="721.2897" y1="410.3129" y2="410.3129"/><text fill="#000000" font-family="sans-serif" font-size="7.3644" lengthAdjust="spacing" textLength="136.4253" x="333.2409" y="407.0221">Compress -&gt; Encrypt -&gt; Upload WAL file</text><polygon fill="#181818" points="136.5058,426.0081,130.8409,428.274,136.5058,430.54,134.2398,428.274" style="stroke:#181818;stroke-width:0.5664908104422337;"/><line style="stroke:#181818;stroke-width:0.5664908104422337;" x1="133.1069" x2="328.7089" y1="428.274" y2="428.274"/><text fill="#000000" font-family="sans-serif" font-size="7.3644" lengthAdjust="spacing" textLength="152.7963" x="139.9047" y="424.9833">On success -&gt; delete local uploaded WAL file</text><path d="M7.1237,440.7368 L182.8493,440.7368 L182.8493,446.2352 L177.1844,451.9001 L7.1237,451.9001 L7.1237,440.7368 " fill="#EEEEEE" style="stroke:#000000;stroke-width:0.8497362156633506;"/><rect fill="none" height="161.8839" style="stroke:#000000;stroke-width:0.8497362156633506;" width="793.7531" x="7.1237" y="440.7368"/><text fill="#000000" font-family="sans-serif" font-size="7.3644" font-weight="bold" lengthAdjust="spacing" textLength="150.2335" x="15.6211" y="449.1758">Basebackup Scheduling / Manual Trigger</text><line style="stroke:#181818;stroke-width:0.5664908104422337;" x1="412.956" x2="436.7487" y1="465.3293" y2="465.3293"/><line style="stroke:#181818;stroke-width:0.5664908104422337;" x1="436.7487" x2="436.7487" y1="465.3293" y2="472.6937"/><line style="stroke:#181818;stroke-width:0.5664908104422337;" x1="413.5225" x2="436.7487" y1="472.6937" y2="472.6937"/><polygon fill="#181818" points="419.1874,470.4278,413.5225,472.6937,419.1874,474.9597,416.9215,472.6937" style="stroke:#181818;stroke-width:0.5664908104422337;"/><text fill="#000000" font-family="sans-serif" font-size="7.3644" lengthAdjust="spacing" textLength="28.1909" x="416.9215" y="462.0386">Run(ctx)</text><path d="M415.2378,480.0581 L415.2378,525.3774 L639.5681,525.3774 L639.5681,485.723 L633.9032,480.0581 L415.2378,480.0581 " fill="#FEFFDD" style="stroke:#181818;stroke-width:0.28324540522111685;"/><path d="M633.9032,480.0581 L633.9032,485.723 L639.5681,485.723 L633.9032,480.0581 " fill="#FEFFDD" style="stroke:#181818;stroke-width:0.28324540522111685;"/><text fill="#000000" font-family="sans-serif" font-size="7.3644" lengthAdjust="spacing" textLength="140.0633" x="418.6367" y="490.7631">Responsible for scheduled basebackups.</text><text fill="#000000" font-family="sans-serif" font-size="7.3644" lengthAdjust="spacing" textLength="181.51" x="418.6367" y="500.7934">Manual backups may also be triggered via HTTP API.</text><text fill="#000000" font-family="sans-serif" font-size="7.3644" lengthAdjust="spacing" textLength="168.6003" x="418.6367" y="510.8237">Basebackup failures must not stop WAL receiver.</text><text fill="#000000" font-family="sans-serif" font-size="7.3644" lengthAdjust="spacing" textLength="212.6909" x="418.6367" y="520.854">Stores basebackups under backup paths in the same storage.</text><polygon fill="#181818" points="42.5135,549.8702,36.8486,552.1362,42.5135,554.4021,40.2475,552.1362" style="stroke:#181818;stroke-width:0.5664908104422337;"/><line style="stroke:#181818;stroke-width:0.5664908104422337;" x1="39.1145" x2="412.3896" y1="552.1362" y2="552.1362"/><text fill="#000000" font-family="sans-serif" font-size="7.3644" lengthAdjust="spacing" textLength="60.6163" x="45.9124" y="538.8151">On cron schedule</text><text fill="#000000" font-family="sans-serif" font-size="7.3644" lengthAdjust="spacing" textLength="65.138" x="45.9124" y="548.8454">create basebackup</text><polygon fill="#181818" points="717.8907,567.8314,723.5556,570.0974,717.8907,572.3633,720.1567,570.0974" style="stroke:#181818;stroke-width:0.5664908104422337;"/><line style="stroke:#181818;stroke-width:0.5664908104422337;" x1="412.956" x2="721.2897" y1="570.0974" y2="570.0974"/><text fill="#000000" font-family="sans-serif" font-size="7.3644" lengthAdjust="spacing" textLength="126.6233" x="416.9215" y="566.8066">Store/upload backup files + manifest</text><polygon fill="#181818" points="419.1874,595.8229,413.5225,598.0888,419.1874,600.3548,416.9215,598.0888" style="stroke:#181818;stroke-width:0.5664908104422337;"/><line style="stroke:#181818;stroke-width:0.5664908104422337;stroke-dasharray:2.0,2.0;" x1="415.7885" x2="626.9132" y1="598.0888" y2="598.0888"/><text fill="#000000" font-family="sans-serif" font-size="7.3644" lengthAdjust="spacing" textLength="88.542" x="422.5864" y="584.7678">POST /api/v1/basebackup</text><text fill="#000000" font-family="sans-serif" font-size="7.3644" lengthAdjust="spacing" textLength="86.8335" x="422.5864" y="594.7981">(optional manual trigger)</text><path d="M460.3785,610.5516 L618.6358,610.5516 L618.6358,616.05 L612.9708,621.7149 L460.3785,621.7149 L460.3785,610.5516 " fill="#EEEEEE" style="stroke:#000000;stroke-width:0.8497362156633506;"/><rect fill="none" height="225.2312" style="stroke:#000000;stroke-width:0.8497362156633506;" width="340.4983" x="460.3785" y="610.5516"/><text fill="#000000" font-family="sans-serif" font-size="7.3644" font-weight="bold" lengthAdjust="spacing" textLength="132.7651" x="468.8759" y="618.9906">Unified Recovery-Window Retention</text><line style="stroke:#181818;stroke-width:0.5664908104422337;" x1="505.9752" x2="529.7678" y1="635.1441" y2="635.1441"/><line style="stroke:#181818;stroke-width:0.5664908104422337;" x1="529.7678" x2="529.7678" y1="635.1441" y2="642.5085"/><line style="stroke:#181818;stroke-width:0.5664908104422337;" x1="506.5417" x2="529.7678" y1="642.5085" y2="642.5085"/><polygon fill="#181818" points="512.2066,640.2425,506.5417,642.5085,512.2066,644.7745,509.9407,642.5085" style="stroke:#181818;stroke-width:0.5664908104422337;"/><text fill="#000000" font-family="sans-serif" font-size="7.3644" lengthAdjust="spacing" textLength="28.1909" x="509.9407" y="631.8534">Run(ctx)</text><path d="M508.7087,649.8729 L508.7087,715.5858 L667.3262,715.5858 L667.3262,655.5378 L661.6613,649.8729 L508.7087,649.8729 " fill="#FEFFDD" style="stroke:#181818;stroke-width:0.28324540522111685;"/><path d="M661.6613,649.8729 L661.6613,655.5378 L667.3262,655.5378 L661.6613,649.8729 " fill="#FEFFDD" style="stroke:#181818;stroke-width:0.28324540522111685;"/><text fill="#000000" font-family="sans-serif" font-size="7.3644" lengthAdjust="spacing" textLength="90.7072" x="512.1077" y="660.5779">Single retention authority.</text><text fill="#000000" font-family="sans-serif" font-size="7.3644" lengthAdjust="spacing" textLength="102.6301" x="512.1077" y="670.6082">Uses recovery_window policy.</text><text fill="#000000" font-family="sans-serif" font-size="7.3644" lengthAdjust="spacing" textLength="123.0589" x="512.1077" y="680.6385">Reads successful backup manifests,</text><text fill="#000000" font-family="sans-serif" font-size="7.3644" lengthAdjust="spacing" textLength="94.08" x="512.1077" y="690.6688">chooses an anchor backup,</text><text fill="#000000" font-family="sans-serif" font-size="7.3644" lengthAdjust="spacing" textLength="70.4993" x="512.1077" y="700.6991">deletes old backups,</text><text fill="#000000" font-family="sans-serif" font-size="7.3644" lengthAdjust="spacing" textLength="147.1478" x="512.1077" y="710.7294">deletes WALs older than anchor start WAL.</text><polygon fill="#181818" points="717.8907,729.7153,723.5556,731.9813,717.8907,734.2472,720.1567,731.9813" style="stroke:#181818;stroke-width:0.5664908104422337;"/><line style="stroke:#181818;stroke-width:0.5664908104422337;" x1="505.9752" x2="721.2897" y1="731.9813" y2="731.9813"/><text fill="#000000" font-family="sans-serif" font-size="7.3644" lengthAdjust="spacing" textLength="121.7628" x="509.9407" y="728.6905">List successful backups + manifests</text><line style="stroke:#181818;stroke-width:0.5664908104422337;" x1="505.9752" x2="529.7678" y1="759.9727" y2="759.9727"/><line style="stroke:#181818;stroke-width:0.5664908104422337;" x1="529.7678" x2="529.7678" y1="759.9727" y2="767.3371"/><line style="stroke:#181818;stroke-width:0.5664908104422337;" x1="506.5417" x2="529.7678" y1="767.3371" y2="767.3371"/><polygon fill="#181818" points="512.2066,765.0711,506.5417,767.3371,512.2066,769.6031,509.9407,767.3371" style="stroke:#181818;stroke-width:0.5664908104422337;"/><text fill="#000000" font-family="sans-serif" font-size="7.3644" lengthAdjust="spacing" textLength="79.1009" x="509.9407" y="746.6517">Choose anchor backup</text><text fill="#000000" font-family="sans-serif" font-size="7.3644" lengthAdjust="spacing" textLength="113.5736" x="509.9407" y="756.682">(newest backup &lt;= window start)</text><polygon fill="#181818" points="717.8907,783.0323,723.5556,785.2983,717.8907,787.5642,720.1567,785.2983" style="stroke:#181818;stroke-width:0.5664908104422337;"/><line style="stroke:#181818;stroke-width:0.5664908104422337;" x1="505.9752" x2="721.2897" y1="785.2983" y2="785.2983"/><text fill="#000000" font-family="sans-serif" font-size="7.3644" lengthAdjust="spacing" textLength="117.0275" x="509.9407" y="782.0075">Delete backups older than anchor</text><polygon fill="#181818" points="717.8907,800.9935,723.5556,803.2594,717.8907,805.5254,720.1567,803.2594" style="stroke:#181818;stroke-width:0.5664908104422337;"/><line style="stroke:#181818;stroke-width:0.5664908104422337;" x1="505.9752" x2="721.2897" y1="803.2594" y2="803.2594"/><text fill="#000000" font-family="sans-serif" font-size="7.3644" lengthAdjust="spacing" textLength="76.7001" x="509.9407" y="799.9687">List archived WAL files</text><polygon fill="#181818" points="717.8907,828.9849,723.5556,831.2509,717.8907,833.5169,720.1567,831.2509" style="stroke:#181818;stroke-width:0.5664908104422337;"/><line style="stroke:#181818;stroke-width:0.5664908104422337;" x1="505.9752" x2="721.2897" y1="831.2509" y2="831.2509"/><text fill="#000000" font-family="sans-serif" font-size="7.3644" lengthAdjust="spacing" textLength="81.0524" x="509.9407" y="817.9299">Delete WALs older than</text><text fill="#000000" font-family="sans-serif" font-size="7.3644" lengthAdjust="spacing" textLength="86.6494" x="509.9407" y="827.9602">anchor backup start WAL</text><path d="M95.5588,843.7137 L163.8895,843.7137 L163.8895,849.2121 L158.2246,854.877 L95.5588,854.877 L95.5588,843.7137 " fill="#EEEEEE" style="stroke:#000000;stroke-width:0.8497362156633506;"/><rect fill="none" height="65.0468" style="stroke:#000000;stroke-width:0.8497362156633506;" width="558.6065" x="95.5588" y="843.7137"/><text fill="#000000" font-family="sans-serif" font-size="7.3644" font-weight="bold" lengthAdjust="spacing" textLength="42.8386" x="104.0562" y="852.1527">API / Status</text><polygon fill="#181818" points="419.1874,866.0403,413.5225,868.3062,419.1874,870.5722,416.9215,868.3062" style="stroke:#181818;stroke-width:0.5664908104422337;"/><line style="stroke:#181818;stroke-width:0.5664908104422337;" x1="415.7885" x2="626.9132" y1="868.3062" y2="868.3062"/><text fill="#000000" font-family="sans-serif" font-size="7.3644" lengthAdjust="spacing" textLength="107.5421" x="422.5864" y="865.0155">GET /api/v1/basebackup/status</text><polygon fill="#181818" points="136.5058,884.0014,130.8409,886.2674,136.5058,888.5334,134.2398,886.2674" style="stroke:#181818;stroke-width:0.5664908104422337;"/><line style="stroke:#181818;stroke-width:0.5664908104422337;" x1="133.1069" x2="626.9132" y1="886.2674" y2="886.2674"/><text fill="#000000" font-family="sans-serif" font-size="7.3644" lengthAdjust="spacing" textLength="43.6119" x="139.9047" y="882.9766">GET /healthz</text><polygon fill="#181818" points="136.5058,901.9626,130.8409,904.2286,136.5058,906.4945,134.2398,904.2286" style="stroke:#181818;stroke-width:0.5664908104422337;"/><line style="stroke:#181818;stroke-width:0.5664908104422337;" x1="133.1069" x2="626.9132" y1="904.2286" y2="904.2286"/><text fill="#000000" font-family="sans-serif" font-size="7.3644" lengthAdjust="spacing" textLength="63.2527" x="139.9047" y="900.9378">GET /api/v1/status</text><text fill="#888888" font-family="sans-serif" font-size="5.6649" lengthAdjust="spacing" textLength="35.6436" x="770.3317" y="8.8882">stream mode</text><text fill="#888888" font-family="sans-serif" font-size="5.6649" lengthAdjust="spacing" textLength="124.2483" x="340.8635" y="974.3747">Cloud-Native PostgreSQL WAL Receiver - pgrwl</text><!--SRC=[XLRRRkCs47ttLmoSbwHDrcsVja5R8BVD1d0shkL5K210GKjZYurC2YGLn_lKZ-WNzajwI56oB3lfcqNEvSoPCqCxwGgcuUHs-ZYcV__-Xn9dMApeNcTCnuyNurEw59Rd8dskobEQicFbf5Odmy52QyU6hWfTPMTVX9ClJ1DjtT9mylkOu0lpb75iw8pAfLaNWvn5Xi-XhREia6KuiAa0XfLufPy__a0vosNk1WFxB5Kf3Anc7kCdhLmYlp7zz74mcEjNODxcIjWWov2EnjxtigXuG9G99-R0thKSah0qkQMZQ-OoUTu4KrOP8M8JDb3HeG5XFsl5csjU8oeWEPdAKYX7mswD8NHRS8ta3ouAlUTrOTBSavLK9N1BgslVUBmzfQDPBYrgFvJsQrbepsLmRJwGLhoW73PzbsqJ-salmsatwoEwvFe1sixJlL1YsTRRd1xT0-fcgkqUsi-psOGk9dTraPExoCsjOLOzxXEd3MA3yOj2fhpNo8VvNvmwYcOqekGJOezeh26XvlX9UTsIY2n_J_EsTdiIG3J-DP2hZUZWM1eDZhhjQvLS-aA1Pwlgtw2byqOhtinmgarcUqRDxtDwDD8nEKtVVGWS0RLtMyZGv3TySbPaURa2qvJgLLc0TFka32kn2i4MKdK3ePQsZgYWHbnqXJ4okW1ZkaJ6VSqXzTxXEKqhTPowrnEuA4mz6KyFwSM-BIo89coapYIQKcp8mHXwiLG5bT9Qc-SFmQoMBR4n6jV2C1KQfXa9TCCm7F6x4DWoE_OmaYcjAkiy698A1Wk6zrgwl6b38C-x-Svwp8F3vQBUPdhEwGO-6qesAhtpGLz4yQGYV8BBGfjLRMoFJtPeRiQEjgEvHrMJ9fIIf4BPjfk-fhJJGblNcppBqgA-ncpaU5L2ki3OiOg8lBCtXXwwyY-5o_qnsLhqVKhQrR6ZEG-lWocJO1J-cvv37AHpo6fL6hRM7zwer6nAHospNOaVJlS0U5MQnW0P-s9Z-beqd1sMTrXLr5rkQSvPLKYrn5h0fgeGObPt4DdtTXsozS_U4NlVDD0_PLjgPUKSKmQ1aAqH075dxzITYdZY6Lwy3Od2QffpCoJmUf62cfLPktNAMmXPL21wgtwqjTpJF8NEmAm3WQeWq1YebONBcQpV8s_eun1bVkcXPQd1tc_AVKBNqGlkf7p3knLDm3YAMw4fqEiQEtibb5omTM5gyMQS7UpKv26PqKYKSlJousYR62-03iiQPAzgpYE_krFRFbdq5Tdyie4ajTy1PuzIPLZzxViMjdFprWNjneztvD9rHaUWIKZ4j554vNADzs0JnzYYS1Fp_xckyvSQxs0qcBAVyZWdYwhHKKkLFGrcQQwr3uK15WeVJSlhstgsBEcYeTpkNeGjWbj8nUNR6DRXkVANVNtiiDAsTWnczw5s6slVOVGgbB0B7prLl8PZK_Ollr8aAM0xUHFBTRrE6WXxjRrVHDoZs_rZ_ozHZy4djLF7bidT1wJzInJaZdysJhZADke_9FxRcqFQ7zcUutRB1WSipCBbtzwyZm5Z50_nFm00]--></g></svg>